<svg width="23" height="20" viewBox="0 0 23 20" fill="none" xmlns="http://www.w3.org/2000/svg">
<path d="M5.30977 7.97988L2.83412 10.7291L1.84045 9.73587C1.41931 9.31473 0.737171 9.31473 0.315804 9.73587C-0.105563 10.157 -0.105339 10.8392 0.315804 11.2605L2.11268 13.0574C2.31483 13.2627 2.5902 13.375 2.83457 13.375C2.8444 13.375 2.85283 13.375 2.86266 13.3743C3.15888 13.3666 3.43811 13.2381 3.63622 13.0184L6.87059 9.42467C7.26927 8.98179 7.23275 8.30028 6.79059 7.90137C6.38789 7.50371 5.70957 7.53964 5.30977 7.97988ZM5.30977 0.794175L2.83412 3.5416L1.84045 2.54837C1.41931 2.12723 0.737171 2.12723 0.315804 2.54837C-0.105563 2.96952 -0.105339 3.65166 0.315804 4.07302L2.11268 5.8699C2.31483 6.07519 2.5902 6.18749 2.83457 6.18749C2.8444 6.18749 2.85283 6.1875 2.86266 6.18679C3.15888 6.17907 3.43811 6.05064 3.63622 5.83092L6.87059 2.23717C7.26927 1.79429 7.23275 1.11278 6.79059 0.713872C6.38789 0.316655 5.70957 0.351694 5.30977 0.794175ZM2.15625 15.4908C0.965374 15.4908 3.04988e-06 16.4562 3.04988e-06 17.6471C3.04988e-06 18.8379 0.965374 19.8033 2.15625 19.8033C3.34713 19.8033 4.3125 18.8379 4.3125 17.6471C4.3125 16.4971 3.34713 15.4908 2.15625 15.4908ZM11.5 4.74999H21.5625C22.3563 4.74999 23 4.10626 23 3.31249C23 2.51873 22.3563 1.87499 21.5625 1.87499H11.5C10.7049 1.87499 10.0625 2.51873 10.0625 3.31249C10.0625 4.10626 10.7049 4.74999 11.5 4.74999ZM21.5625 9.0625H11.5C10.7049 9.0625 10.0625 9.70488 10.0625 10.5C10.0625 11.2951 10.7062 11.9375 11.5 11.9375H21.5625C22.3563 11.9375 23 11.2938 23 10.5C23 9.70623 22.3576 9.0625 21.5625 9.0625ZM21.5625 16.25H8.625C7.83123 16.25 7.1875 16.8937 7.1875 17.6875C7.1875 18.4813 7.83123 19.125 8.625 19.125H21.5625C22.3563 19.125 23 18.4813 23 17.6875C23 16.8937 22.3576 16.25 21.5625 16.25Z" fill="black"/>
</svg>
